<svg width="41" height="37" viewBox="0 0 41 37" fill="none" xmlns="http://www.w3.org/2000/svg">
<path d="M39.2538 13.6548C38.9688 13.4345 38.6126 13.2877 38.2564 13.1409C35.9767 5.35915 28.9238 0 21.0873 0C11.1848 0 3.1346 8.29561 3.1346 18.5C3.1346 19.2341 3.20587 19.9683 3.27708 20.7024C1.79263 22.144 0.710212 23.9692 0.142476 25.9881L0 26.4286L0.427429 26.2818C0.712382 26.2083 0.997335 26.0615 1.28235 25.9881C2.27975 25.621 3.34835 25.254 4.27448 24.9603C6.91038 32.1548 13.607 37 21.0873 37C30.9898 37 39.04 28.7044 39.04 18.5C39.04 17.9861 39.04 17.3988 38.9687 16.8849C39.7524 16.5913 40.2511 16.2976 40.3936 15.8571L40.4648 15.7837V15.7103C40.4648 15.6369 40.536 15.5635 40.536 15.4167C40.5361 14.8294 40.1086 14.1687 39.2538 13.6548ZM14.0344 9.32341L13.9632 8.66269L13.8919 8.44243L13.6782 7.92853L13.5357 7.78171L13.1083 7.19443L12.9658 7.04761L12.5384 6.46033L12.3959 6.24007C12.3959 6.24007 12.2534 6.0198 12.2534 5.87298C12.6096 4.91862 15.5305 4.47816 19.1638 4.47816C21.5147 4.47816 24.0794 4.62498 26.5016 4.99207C28.8525 5.35915 30.9898 5.79961 32.4146 6.38689C33.412 6.82735 33.9819 7.26787 33.9819 7.78171C33.7681 8.29561 33.412 8.66269 33.127 9.02971C32.6283 9.61699 32.2008 10.2043 31.9159 11.0852C26.3591 9.98413 19.9474 9.54361 14.1057 9.76387H14.0344C14.0495 9.66396 14.0734 9.56568 14.1057 9.47023L14.0344 9.32341ZM16.1005 15.7837C16.2429 15.4901 16.3854 15.3433 16.5991 15.123C17.0078 14.702 17.5284 14.4152 18.0951 14.2991C18.6619 14.1829 19.2493 14.2425 19.7832 14.4704C20.3171 14.6983 20.7734 15.0842 21.0944 15.5793C21.4154 16.0744 21.5868 16.6565 21.5868 17.252C21.5868 17.8475 21.4154 18.4296 21.0944 18.9247C20.7734 19.4198 20.3171 19.8057 19.7832 20.0336C19.2493 20.2615 18.6619 20.3211 18.0951 20.2049C17.5284 20.0888 17.0078 19.802 16.5991 19.381C15.958 18.7203 15.6018 17.6925 15.8155 16.7381L15.8868 16.4445C15.9359 16.2173 16.0075 15.9959 16.1005 15.7837ZM13.607 14.3154C13.3933 14.7559 13.2508 15.4166 13.1796 15.9305C12.2535 15.7102 11.3273 15.5634 10.5437 15.3432C7.62283 14.5357 5.77057 13.7281 5.6993 12.994C7.55156 12.5536 10.7574 12.3333 14.6044 12.4068C14.1769 12.9207 13.8208 13.6548 13.607 14.3154ZM13.4645 20.6289C10.6149 20.6289 8.26394 21.2162 6.26921 22.0972C4.27448 22.9782 2.63591 24.2262 0.997396 25.5476C0.85492 25.621 0.712443 25.621 0.641175 25.6944C1.30864 23.5167 2.63097 21.6141 4.41695 20.2619C6.48295 18.6468 9.40381 17.3988 13.3221 16.5913H13.5358V16.004C13.8208 16.004 14.177 16.004 14.4619 16.0774C14.7469 16.1509 15.0318 16.2243 15.3169 16.4445C15.1031 17.6191 15.3881 18.7937 16.243 19.6747C17.5253 20.9961 19.7338 20.9961 21.0161 19.6747C22.2984 18.3532 22.2984 16.0774 21.0161 14.7561C19.7338 13.4347 17.6677 13.4346 16.3142 14.6826C15.958 14.5358 15.5305 14.389 15.1743 14.2422C14.8181 14.1687 14.4619 14.1687 14.1057 14.1687C14.3907 13.508 14.6756 12.9207 15.0318 12.4068C17.6678 12.4803 20.5886 12.6271 23.5095 12.8473C23.8658 12.8473 24.2219 12.9207 24.5069 12.9207C24.222 14.2422 23.937 15.4902 23.5095 16.7382C23.0821 17.9128 22.6546 19.014 22.156 19.8949C21.871 20.4088 21.5148 20.8492 21.1586 21.3631C20.8024 21.8036 20.4462 22.3175 20.0187 22.758C18.0952 24.5199 15.7442 24.8134 13.3933 24.373C13.322 24.2996 13.2508 24.1528 13.1795 24.0794L12.9658 23.6389V23.4921H12.8233C12.7846 23.4971 12.7454 23.493 12.7084 23.4803C12.6714 23.4676 12.6376 23.4466 12.6096 23.4187H12.3958C12.2533 23.4187 12.1109 23.3452 11.9684 23.3452H9.68877C9.51958 23.3382 9.35058 23.3631 9.19007 23.4187H8.97632C8.83385 23.4187 8.6201 23.4921 8.47762 23.4921H8.26388C8.1214 23.4921 7.90766 23.5656 7.76518 23.5656L7.55143 23.639C7.45168 23.6358 7.35303 23.6612 7.26648 23.7125H7.12401L6.91026 23.7859C6.76778 23.7859 6.62531 23.8593 6.48283 23.8593H6.26909C6.12661 23.8593 5.98413 23.9327 5.91286 23.9327L5.69912 24.0062C5.55664 24.0062 5.48537 24.0796 5.3429 24.0796L5.05813 24.2262C4.92603 24.229 4.79941 24.2812 4.70191 24.373L4.48816 24.4465C3.77578 24.6668 3.1346 24.8869 2.42216 25.1072C3.70451 24.1528 4.98686 23.2719 6.55416 22.5378C8.47768 21.6568 10.7574 21.0695 13.5358 21.0695C13.6782 21.0695 13.7495 20.9961 13.7495 20.8492C13.6782 20.7024 13.607 20.6289 13.4645 20.6289ZM25.2905 15.9305C25.433 16.0039 25.5043 15.9305 25.5755 15.8571C25.7892 15.49 25.8604 15.123 26.0029 14.6091C26.0741 14.1686 26.1454 13.6547 26.2166 13.0674C26.5016 13.0674 26.7153 13.1409 27.0003 13.1409C26.4304 17.3988 25.7179 21.8035 22.7258 25.254C21.9422 26.2083 21.016 26.869 20.0186 27.3829C18.7363 27.9702 16.8128 28.2639 15.388 27.9702C14.8181 27.8234 14.4619 27.5298 14.2481 27.2361C14.103 26.9938 14.0287 26.7134 14.0344 26.4286C14.6723 26.6743 15.3481 26.7987 16.0291 26.7957C16.6703 26.7222 17.2402 26.5754 18.0951 26.2084C18.2376 26.135 18.2376 26.0616 18.2376 25.9148C18.1663 25.7679 18.0951 25.7679 17.9526 25.7679C17.169 26.0616 16.5991 26.2818 16.0291 26.2818C15.4592 26.2818 14.818 26.2084 13.9631 25.9148C13.6782 25.7679 13.4644 25.5477 13.3932 25.3275C13.322 25.1386 13.322 24.9291 13.3932 24.7402C16.2429 25.3275 18.5938 24.7402 20.4461 23.0517C20.5885 22.9782 20.6598 22.8314 20.8023 22.758C21.5547 21.9692 22.2016 21.0804 22.7258 20.1151V19.8949V19.6746L22.7971 19.6012L22.8684 19.4544L22.9396 19.3809C23.0109 19.3075 23.0109 19.2341 23.0821 19.0873C23.3671 18.4266 23.7233 17.619 23.937 16.8115C24.3301 15.6063 24.663 14.3812 24.9344 13.1409L25.0057 12.9206C25.2906 12.9206 25.5044 12.994 25.7893 12.994C25.7181 13.5813 25.6469 14.0952 25.5756 14.4623C25.5043 14.9028 25.3618 15.2698 25.2194 15.6369C25.148 15.7103 25.148 15.8571 25.2905 15.9305ZM28.2114 29.6587L28.3539 31.5674L20.3748 36.4861H20.3037L20.5174 36.2658C22.0847 34.3571 23.7232 32.5218 25.148 30.4662C25.7892 29.5119 26.4304 28.6309 27.0716 27.6031L27.1428 27.5297V27.3094L27.2141 27.236L27.2854 27.1626C27.7842 26.355 28.2829 25.4741 28.7814 24.5197C28.9239 24.2994 29.0664 24.0792 29.1376 23.7856L29.4938 24.8868L29.6363 25.474L30.7762 29.2915L28.354 29.3649H28.1402L28.2114 29.6587ZM14.6756 32.6687L14.5331 31.7143L16.1717 30.4663L15.673 33.6965L15.388 35.4584C15.3167 35.4584 15.2455 35.3849 15.1031 35.3849L14.6756 32.6687ZM14.6756 35.2381C14.1057 35.0178 13.607 34.7242 13.0371 34.504L14.3194 33.256L14.6756 35.2381ZM16.1005 33.8433L16.4567 33.5496L16.6704 33.9901L16.243 35.752C16.1005 35.6786 15.958 35.6786 15.8156 35.6052L16.1005 33.8433ZM16.1717 33.256L16.4567 31.5675C16.5279 31.6409 16.5991 31.7877 16.6704 31.8611C16.8129 32.0814 17.0266 32.2282 17.2403 32.4484L16.1717 33.256ZM18.024 34.2104L18.4514 33.4026L20.8024 35.1645C20.5174 35.4582 20.3037 35.7518 20.0187 36.0455C19.8762 36.1923 19.805 36.3392 19.6625 36.4126C19.1638 36.3392 18.7364 36.3392 18.2377 36.2658L18.024 34.2104ZM18.1664 32.5953C18.8788 32.5219 19.52 32.375 20.1612 32.2282C21.9422 31.7143 23.4383 30.9068 24.7206 29.7322C25.0943 29.4095 25.451 29.0664 25.7892 28.7044C25.433 29.2183 25.148 29.7322 24.7918 30.1727C24.4356 30.6131 24.0794 31.127 23.7232 31.5675C22.9396 32.5953 22.0846 33.623 21.2298 34.6508H21.016L18.1664 32.5953ZM28.995 18.2064C28.7813 19.748 28.7813 21.2163 28.995 23.1984C28.2114 24.6667 27.4277 26.0615 26.5016 27.2361C25.7892 28.1171 25.0768 28.9247 24.2219 29.6588C23.0108 30.6131 21.6572 31.4207 20.0899 31.8611C19.2975 32.0851 18.4867 32.2326 17.6678 32.3016L17.0266 31.6409C16.8386 31.439 16.6714 31.2176 16.5279 30.9801C16.5279 30.8333 16.5991 30.7599 16.5991 30.613C16.7416 29.9523 16.8129 29.2916 16.7416 28.6309H17.5253C17.739 28.6309 17.8815 28.6309 18.024 28.5574H18.2377C18.3802 28.5574 18.5939 28.484 18.7364 28.484L18.9502 28.4106C19.0926 28.3371 19.3064 28.3371 19.4489 28.2637L19.6626 28.1903L20.09 27.97L20.3038 27.8966L20.7312 27.6763L20.945 27.5295C21.0874 27.4561 21.2299 27.3093 21.3724 27.2359L21.5861 27.0891C21.7286 27.0156 21.7999 26.8688 21.9424 26.7954L22.1561 26.5752C22.2986 26.5017 22.3698 26.3549 22.5123 26.2815L22.7261 26.0613C22.8685 25.9144 22.9398 25.841 23.011 25.6942L23.2248 25.4005C23.3672 25.2537 23.4385 25.1069 23.581 24.9601L23.7947 24.6664C25.2908 22.5375 26.4306 19.5275 27.0718 15.8569C27.2143 15.0494 27.3568 14.2418 27.428 13.3609C28.3542 13.4344 29.2803 13.5812 30.1352 13.728C29.6361 15.2698 29.2088 16.7381 28.995 18.2064ZM21.2298 36.4861L28.71 31.8611L28.8524 31.7877V31.6409L28.71 29.8789L31.1322 29.8055H31.4171L31.3459 29.4384L30.3486 26.1349L34.7656 29.6588C31.631 33.7698 26.7153 36.4127 21.2298 36.4861ZM34.8371 17.252C33.3411 17.3988 31.56 17.4723 29.5653 17.4723C29.779 16.2976 30.2065 15.0496 30.6339 13.5814C34.6946 14.1687 38.1142 14.9028 39.8952 15.7837C39.5387 16.4445 37.6865 16.9584 34.8371 17.252ZM30.8476 13.1409L30.6338 13.0675C28.4254 12.627 25.9319 12.4802 23.6523 12.3334C16.3856 11.7461 9.1191 11.6727 5.77076 12.4802C6.12698 11.5258 7.97923 10.9386 10.4014 10.5715C11.3988 10.4247 12.4674 10.3512 13.536 10.2778H13.6785C20.1614 9.98419 28.7815 10.5715 35.6919 12.5536C37.0455 12.9941 38.1853 13.4346 38.969 13.9485C39.6102 14.3889 40.0376 14.8294 40.0376 15.2699C38.2564 14.4623 34.8374 13.7283 30.8476 13.1409Z" fill="white"/>
<path d="M18.024 17.619C18.4514 17.619 18.6651 17.4722 18.7363 17.1786C19.0213 17.252 19.52 17.252 19.7337 17.3988C19.52 17.8393 18.2377 17.9861 17.8102 17.9861C17.6677 17.9861 17.5965 18.0595 17.5965 18.2064C17.5965 18.3532 17.6677 18.4266 17.8103 18.4266C18.3802 18.4266 20.1612 18.2063 20.1612 17.3988V17.3254C20.1612 16.8115 19.8763 16.4444 19.5201 16.1508C19.0926 15.8571 18.5227 15.7103 17.8815 15.5635C17.739 15.5635 17.6677 15.6369 17.6677 15.7837C17.6677 15.9306 17.739 16.004 17.8815 16.004C18.4514 16.0774 18.9501 16.2243 19.3063 16.4445C19.4488 16.5913 19.5913 16.7381 19.6625 16.8849C19.5201 16.8849 19.4488 16.8115 19.3063 16.8115C18.7907 16.6936 18.2664 16.62 17.739 16.5912C17.2403 16.5913 17.3116 17.619 18.024 17.619Z" fill="white"/>
</svg>
