<svg viewBox="0 0 304 520" fill="none" xmlns="http://www.w3.org/2000/svg">
<g opacity="0.1">
<path d="M303.624 257.476C300.732 249.693 293.212 246.699 286.271 251.489L282.801 255.98C280.776 254.183 261.399 223.647 256.193 212.87C253.88 208.08 247.228 200.895 245.203 197.901C243.179 194.608 233.635 177.843 231.321 173.652C228.429 168.862 225.826 167.365 223.512 161.377C220.91 153.893 219.174 150.899 214.836 144.313C209.92 137.128 206.449 132.338 201.532 123.956C198.062 117.968 188.807 99.1077 185.337 95.8146C179.552 85.6359 170.587 71.5654 167.984 61.9854L162.778 52.1061L158.44 42.8255C167.695 41.9274 169.141 39.233 169.141 30.8506C168.852 23.965 167.406 22.1687 162.778 21.8694L158.151 22.7675L158.44 11.3913C158.729 7.20006 152.656 0.0150929 148.318 0.0150929C145.136 -0.284281 141.087 3.90695 140.22 9.29567L140.509 17.0794C140.798 20.0731 141.666 22.1687 143.112 23.3662H136.749C130.676 25.1625 129.23 31.4493 129.519 36.5387C129.23 38.9337 132.411 42.5261 134.146 43.7236C138.195 45.2205 138.484 44.023 141.377 42.5261C133.279 58.3929 122.289 72.7629 113.902 88.0309C108.985 97.3115 95.392 115.873 92.2107 126.051C84.6912 135.332 78.0394 149.702 74.2796 158.084C67.917 171.257 59.8191 182.633 52.0104 194.907C48.2506 201.194 33.7901 226.641 29.1627 234.125C24.5353 241.31 24.8245 242.807 18.7511 250.89L11.2316 247.597C6.31504 247.298 1.97687 251.788 0.241609 256.578C-0.626024 261.967 0.530819 268.553 8.91794 269.751C7.18267 273.044 7.18267 275.439 6.89346 279.031C7.76109 281.726 6.89346 285.318 14.7022 287.114L20.7756 286.815C23.3785 285.617 23.9569 283.821 23.3785 281.127C27.7167 291.904 46.5154 325.135 53.7456 336.212C60.9759 346.989 67.6278 363.155 74.858 375.43C65.8925 377.825 63.868 386.506 67.3386 392.494C69.0738 393.991 71.9659 397.284 76.5933 396.386C79.4854 396.386 82.3775 393.691 84.1128 391.296C87.8725 398.182 85.2696 393.093 89.6078 400.876C91.6323 405.068 93.0783 408.959 95.6812 412.851C100.887 420.934 104.647 427.82 109.853 435.903C112.455 440.094 122.578 455.961 124.024 458.955C127.784 467.637 135.592 477.516 139.641 486.198C135.882 487.096 130.097 488.892 128.651 494.58C128.362 500.568 129.519 502.364 131.833 504.759C134.725 506.256 135.303 506.555 139.352 506.555H143.112C142.244 511.345 143.401 515.536 145.136 517.931C147.161 520.027 148.607 520.326 152.656 519.728C156.994 518.83 159.018 511.645 159.308 505.657L167.116 505.956C171.165 506.256 172.033 505.358 173.479 504.46C175.214 502.963 176.082 499.969 176.371 496.376C174.636 488.293 167.984 487.096 160.175 486.497C165.67 478.115 168.273 472.127 171.744 465.84C176.371 458.057 178.396 452.967 183.891 444.884C188.229 438.298 192.856 431.412 196.327 422.731C197.773 419.138 212.522 393.093 213.679 392.494C214.836 393.392 215.993 396.386 221.199 396.685C226.694 396.984 229.586 395.188 230.743 388.602C230.743 384.111 231.032 381.716 223.512 377.226C226.115 373.334 224.959 371.837 227.561 367.646C231.321 361.06 229.007 361.359 233.924 355.072C239.419 347.887 241.444 338.607 247.517 331.122C253.59 319.447 257.639 314.357 262.267 306.574C266.026 300.886 273.257 284.42 276.438 279.63C277.595 285.917 280.487 288.911 285.982 288.012C295.815 285.917 297.84 278.433 293.212 272.744C297.261 273.942 300.443 272.744 301.31 270.05C303.913 267.356 304.492 259.871 303.624 257.476ZM157.862 26.9587C160.754 26.9587 163.935 29.9525 163.646 32.0481C163.357 36.5387 162.489 37.1374 159.018 36.5387L154.391 35.3412C153.234 34.4431 152.656 33.2456 152.945 31.4493C154.102 28.1562 153.813 26.9587 157.862 26.9587ZM147.161 8.69693C148.318 7.20006 151.21 8.69693 152.656 9.89442C154.102 10.7925 153.523 15.5825 153.523 17.6781C153.234 19.7738 150.631 20.3725 150.631 20.3725C150.342 20.6719 148.318 20.0731 147.739 19.175C147.161 18.2769 146.293 16.4806 146.004 14.6844C145.426 12.5888 146.004 9.89442 147.161 8.69693ZM140.22 39.5324C137.038 39.8318 134.725 36.5387 134.725 33.8443C135.014 29.6531 139.063 27.5575 142.533 27.8568C143.979 27.8568 145.426 29.6531 145.426 31.1499V33.2456C145.136 36.838 143.112 38.9337 140.22 39.5324ZM6.60425 262.566C4.57977 260.47 4.00135 257.776 5.1582 254.782C7.18267 252.686 9.49636 252.387 11.2316 253.285C13.8345 254.183 15.859 257.177 14.4129 260.47C14.4129 263.464 9.49636 263.763 6.60425 262.566ZM19.3295 282.025C16.7266 283.821 11.81 283.821 10.364 279.929C9.78557 276.337 10.6532 272.445 17.5943 273.942C20.4864 274.541 21.354 279.63 19.3295 282.025ZM77.1717 390.698C75.1472 391.895 72.5443 391.296 70.2307 388.602C67.917 385.908 70.5199 382.615 72.2551 381.716C73.7012 380.818 77.1717 382.016 77.1717 382.016C77.1717 382.016 78.6178 383.213 79.7746 385.309C80.6423 387.704 79.1962 389.5 77.1717 390.698ZM143.112 502.065C140.22 502.364 136.749 502.364 136.749 499.071C137.038 494.281 139.063 493.083 142.823 493.083C146.293 494.58 146.872 501.466 143.112 502.065ZM154.68 511.944C154.391 514.04 151.21 514.339 151.21 514.339C151.21 514.339 149.764 514.339 149.185 513.441C148.607 513.441 147.45 510.447 147.161 508.95C146.872 506.855 147.161 504.759 148.318 503.262C149.474 501.765 152.367 503.262 153.813 504.46C155.548 505.358 154.68 509.848 154.68 511.944ZM163.067 493.682C164.513 493.682 165.959 495.478 165.959 496.975C165.959 499.67 164.803 501.765 162.778 501.466C161.332 501.466 159.886 499.67 159.886 498.173C159.886 495.778 161.043 493.682 163.067 493.682ZM226.405 387.405C226.405 391.296 222.066 395.488 218.885 391.895C217.439 389.799 216.571 387.405 217.439 385.309C219.464 382.016 225.248 382.615 226.405 387.405ZM259.375 297.892C256.772 301.484 253.88 308.669 252.144 310.765C250.12 313.16 245.782 321.542 243.179 325.135C238.262 332.32 238.841 334.715 233.924 342.798C231.032 345.193 229.007 351.18 226.694 355.372C222.066 364.053 218.596 373.334 214.258 379.022C213.969 379.621 213.679 380.519 213.101 381.118C212.812 381.716 212.522 382.315 212.233 383.213C211.944 383.812 211.655 384.411 211.076 384.71C210.787 385.908 210.209 386.806 209.63 388.003C209.63 388.003 209.63 388.003 209.63 388.303C209.63 388.901 200.665 405.666 198.93 408.959C196.616 413.151 193.724 418.24 191.988 421.533C187.65 429.317 184.18 434.706 179.552 442.489C171.165 456.56 155.548 483.803 150.053 493.083C144.847 482.905 137.906 471.528 132.411 462.847C128.362 455.961 130.097 455.961 124.892 449.375C121.71 445.483 119.397 440.693 116.215 436.202C110.431 428.119 106.382 418.839 100.598 410.157C97.9949 405.966 95.1028 400.278 92.7891 396.086C91.6323 393.991 87.0049 385.309 87.0049 385.309V385.01C86.7157 384.411 86.1373 383.513 85.8481 382.615C85.5588 382.315 85.2696 381.716 84.9804 381.417C84.9804 381.118 84.6912 380.818 84.6912 380.818C84.402 380.22 83.8236 379.621 83.5344 379.022C83.5344 379.022 83.5344 379.022 83.5344 378.723C83.5344 378.723 83.5344 378.723 83.2452 378.723C80.0638 373.334 71.6767 359.263 69.9415 354.174C67.6278 349.384 58.0838 332.32 55.7701 329.027C52.5888 323.937 52.5888 323.937 49.6967 317.95C47.383 312.861 35.2361 292.503 31.7656 287.414C26.5598 279.331 23.0893 271.547 17.3051 266.158L23.9569 257.177C26.5598 252.088 41.3096 231.132 43.334 224.246C45.0693 218.258 56.927 205.685 59.8191 198.2C63.2896 189.519 69.0738 182.334 73.7012 173.951C78.907 162.575 82.0883 159.881 85.8481 150.899C90.7646 138.625 92.4999 140.122 97.7057 130.841C100.887 125.453 105.804 115.873 108.696 109.586C118.529 93.4196 144.847 54.8005 149.764 38.0355C154.102 43.7236 154.68 54.5011 159.886 61.9854C163.646 67.0748 163.067 69.7691 165.959 74.8585C169.141 80.846 172.901 83.5403 175.793 91.0247C180.998 102.7 183.891 105.694 189.386 115.573C194.591 125.453 199.508 134.733 204.425 144.912C207.895 149.403 203.268 143.714 211.076 153.294C216.282 164.072 252.144 220.653 257.929 228.138C264.87 241.31 270.075 248.495 278.173 260.47C273.257 266.458 268.34 288.911 259.375 297.892ZM287.139 281.726C283.668 283.821 280.198 279.63 279.33 276.936C278.173 273.643 282.801 269.751 285.693 270.948C289.453 274.84 290.031 280.528 287.139 281.726ZM292.055 266.158C288.874 265.859 286.85 264.961 286.271 262.865C284.825 258.674 288.296 252.686 292.634 254.483C298.418 257.476 299.286 264.661 292.055 266.158Z" fill="white"/>
</g>
</svg>
